<svg fill="none" xmlns="http://www.w3.org/2000/svg" viewBox="0 0 149 28"><path fill-rule="evenodd" clip-rule="evenodd" d="M43.556 11.645c-1.652.208-2.684.692-3.372 1.385-.55.554-.826 1.246-.826 1.938 0 1.247.895 2.147 1.996 2.147.688 0 1.376-.278 1.72-.693.137-.138.275-.415.275-.692l.206-4.085Zm2.82 7.408c-1.376 0-2.614-.9-2.958-2.284-.688 1.246-1.996 2.284-3.716 2.284-1.927 0-3.578-1.523-3.578-3.462 0-2.7 2.546-4.638 7.362-4.708v-.692c.07-1.938-1.032-3.116-2.958-3.116-1.377 0-2.821.9-3.785 2.077-.068.07-.481-.345-.481-.415C37.5 6.245 39.77 4.86 42.11 4.86c2.684 0 4.61 1.939 4.542 5.192l-.206 5.401c0 1.246.55 1.8 1.17 1.8.687 0 1.169-.554 1.444-1.316 0-.069.413.139.413.208 0 1.87-1.376 2.908-3.097 2.908Zm17.134-.485h-3.647c-.069 0-.069-.692 0-.692 1.514-.208 1.72-.346 1.72-3.323v-4.154c0-1.87-1.1-3.185-2.683-3.185-1.101 0-2.133.554-2.615 1.246-.344.416-.55 1.177-.55 2.147v3.946c0 2.977.343 3.115 1.857 3.323 0 0 .069.692 0 .692h-7.019c-.068 0-.068-.692-.068-.692 1.651-.277 1.858-.346 1.858-3.323V9.499c0-3.047-.344-3.185-2.134-3.462-.137 0-.068-.692 0-.692h5.23V8.39h.069c1.17-2.216 2.959-3.531 5.16-3.531 2.478 0 4.404 1.939 4.404 5.123v4.5c0 2.978.275 3.116 1.927 3.324.137 0 .069.692 0 .692-1.032.07-2.546.07-3.51.07Zm11.078.485c-4.129 0-6.812-3.254-6.812-6.993 0-4.015 2.684-7.2 7.087-7.2 2.064 0 3.097.692 3.716.692.275 0 .55-.207.688-.554 0-.069.826-.069.826 0v4.985c0 .07-.826.07-.826 0-1.1-2.285-2.615-4.223-4.403-4.223-2.203 0-3.51 2.354-3.51 5.608 0 3.462 1.789 5.747 4.266 5.747 1.651 0 3.51-1.177 4.266-2.493.069-.139.62.139.62.277-.895 2.354-3.234 4.154-5.918 4.154Zm16.72-8.793v-.97c0-2.145-1.032-3.392-2.34-3.392-1.65 0-2.89 1.8-3.165 4.362h5.505Zm-5.505 1.592c0 2.978 1.652 5.262 4.473 5.262 1.651 0 3.303-1.107 4.198-2.492 0-.07.55.138.55.277-.757 2.354-3.234 4.154-5.986 4.154-4.335 0-6.881-3.185-6.881-6.993 0-3.808 2.683-7.2 7.225-7.2 3.44 0 5.71 2.285 5.917 5.4v.97h-9.358c-.137.138-.137.484-.137.623Zm16.377 7.201c-2.133 0-3.99-.553-4.61-.97-.069-.068-.275-1.868-.275-3.669 0-.069.825-.138.825 0 1.101 2.423 2.684 3.808 4.404 3.808 1.445 0 2.477-.761 2.477-1.938 0-1.385-1.651-2.008-3.302-2.77-1.996-.761-4.266-1.8-4.266-4.361 0-2.008 1.72-4.085 4.954-4.085 1.376 0 2.27.553 2.89.553.275 0 .55-.207.756-.553 0-.07.826-.07.826 0v4.57c0 .069-.826.069-.826 0-1.101-2.078-2.408-3.532-3.99-3.532-1.446 0-2.134.97-2.134 1.731 0 1.385 1.583 1.939 3.234 2.631 1.996.83 4.335 1.87 4.335 4.5 0 2.216-2.064 4.085-5.298 4.085Zm6.812-12.255c-.206 0-.275-.554-.069-.692 1.445-1.316 3.854-3.53 5.161-4.916.069-.069.55 0 .55.139v4.084h4.679c.138 0 .138 1.316 0 1.316h-4.679v7.685c0 1.73 1.033 2.492 2.133 2.492.826 0 1.721-.692 2.134-1.523 0-.069.55.208.55.278-.55 1.869-2.339 3.323-4.335 3.323-2.133 0-3.853-1.385-3.853-4.085v-8.1h-2.271Zm21.744 2.216c-.413 0-1.445-1.246-2.202-1.246-.344 0-.757.208-1.101.554-.551.554-1.032 1.87-1.032 2.977v3.323c0 3.047.482 3.116 2.064 3.323 0 0 .069.692 0 .692h-7.293c-.069 0-.069-.692 0-.692 1.651-.277 1.858-.346 1.858-3.323V9.568c0-2.977-.344-3.185-2.134-3.462-.137 0-.068-.692 0-.692h5.298v3.461h.138c.138-.415.413-.9.619-1.384.963-1.593 2.134-2.562 3.372-2.562 1.17 0 2.133.9 2.133 1.87.068 1.107-1.376 2.215-1.72 2.215Zm14.243 1.8-4.473 11.562c-1.582 4.085-3.027 4.916-4.954 4.916-1.101 0-2.34-.554-2.34-.9-.068-.554.689-2.562 1.101-2.562.138 0 1.789.762 2.615.762 1.17 0 1.927-.762 2.546-2.423l.826-2.216c-.276-1.108-3.578-8.377-3.991-9.347-.826-1.938-1.376-3.461-1.927-4.015-.344-.347-.688-.485-1.651-.624-.069 0-.069-.692 0-.692.895 0 2.752.07 3.784.07 1.033 0 2.821-.07 3.716-.07.069 0 .069.692 0 .692-2.064.277-1.858.97-.757 3.739l2.409 5.885 1.926-5.054c.688-1.731 1.032-2.77 1.032-3.393 0-.762-.482-1.038-1.926-1.108-.069 0-.069-.761 0-.761.963 0 2.202.069 3.027.069.619 0 1.239-.07 2.409-.07.068 0 .137.762 0 .762-.757.07-1.101.277-1.514.692-.551.554-.964 1.662-1.858 4.085v.001ZM20.844 4.894c-2.39-2.65-4.78-2.231-5.189-2.162.205.07.41 4.671 2.936 7.112 1.707 1.603 5.189 1.045 5.189 1.045s-.615-3.416-2.936-5.995Zm2.867 8.993c-.75 0-3.823.28-5.871 2.859-2.117 2.719-2.048 4.88-2.526 5.368.41.14 4.71.558 6.554-2.3 1.775-2.65 1.844-5.508 1.844-5.927ZM5.005 12.005c.478.07 2.117 2.23 5.053 2.51 3.208.348 4.3-1.325 4.37-1.325 0-.209-2.595-3.067-5.463-3.067-1.98.07-3.96 1.882-3.96 1.882Zm11.675 1.464c-.068.07-2.73 3.695-9.012 2.72C2.615 15.35.77 12.492.43 12.422c.41-.558 4.233-3.695 8.67-3.625 4.37.14 7.579 2.649 7.579 2.649h2.799c-2.253-.697-4.984-1.952-6.213-4.74-1.092-2.58-.887-4.114-1.365-6.275 0 0 5.052-.419 8.944 2.16 3.55 2.371 5.53 8.646 5.598 8.855h2.185L28.149.292l2.73.07c-.477 2.928.138 23.844 0 23.844-.272.07-2.594.208-2.798-.35 0 0 .546-10.248.614-10.457h-2.117c0 .14-.204 5.926-4.505 8.994-4.302 3.067-10.515 2.161-10.515 2.161.752-1.185 0-2.44 2.185-5.856 2.526-3.905 5.872-5.299 5.804-5.299-.205.07-2.8.07-2.868.07" fill="#4F5162"/></svg>