<svg fill="none" xmlns="http://www.w3.org/2000/svg" viewBox="0 0 77 33"><g clip-path="url(#a)" fill="#4F5162"><path d="M9.957 7.776C4.526 7.776 0 10.166 0 17.373c0 5.71 3.043 9.306 10.097 9.306 8.302 0 8.835-5.67 8.835-5.67h-4.023s-.863 3.053-5.057 3.053c-3.417 0-5.874-2.393-5.874-5.747h15.374V16.21c0-3.318-2.031-8.434-9.395-8.434Zm-.14 2.69c3.251 0 5.468 2.066 5.468 5.162H4.067c0-3.287 2.894-5.162 5.75-5.162Z"/><path d="M19.35.797V23.06c0 1.263-.087 3.038-.087 3.038H23.1s.137-1.274.137-2.44c0 0 1.896 3.076 7.051 3.076 5.428 0 9.115-3.908 9.115-9.506 0-5.208-3.386-9.397-9.106-9.397-5.356 0-7.02 2.999-7.02 2.999V.797H19.35Zm9.956 9.788c3.686 0 6.03 2.836 6.03 6.643 0 4.082-2.707 6.752-6.003 6.752-3.934 0-6.057-3.185-6.057-6.716 0-3.29 1.904-6.68 6.03-6.68Z"/><path d="M48.939 7.776c-8.17 0-8.694 4.639-8.694 5.38h4.066s.214-2.708 4.347-2.708c2.687 0 4.768 1.275 4.768 3.726v.873h-4.768c-6.33 0-9.676 1.92-9.676 5.816 0 3.835 3.092 5.92 7.27 5.92 5.695 0 7.53-3.262 7.53-3.262 0 1.298.096 2.577.096 2.577h3.615s-.14-1.585-.14-2.6v-8.765c0-5.747-4.47-6.957-8.414-6.957Zm4.487 9.888v1.163c0 1.517-.903 5.29-6.218 5.29-2.91 0-4.159-1.507-4.159-3.254 0-3.178 4.203-3.199 10.377-3.199Z"/><path d="M55.163 8.504h4.575l6.566 13.64 6.551-13.64H77L65.067 32.787H60.72l3.443-6.77-9-17.513Z"/></g><defs><clipPath id="a"><path fill="#fff" transform="translate(0 .792)" d="M0 0h77v32H0z"/></clipPath></defs></svg>