<svg fill="none" xmlns="http://www.w3.org/2000/svg" viewBox="0 0 75 46"><path d="m36.242 23.757.198.037-.197-.037Zm.539.09c.076.012.153.022.23.032l-.23-.031Zm.569.07c.074.006.149.013.224.018l-.224-.019Zm.304.024c.063.005.126.008.19.012l-.19-.012Zm.281.017.225.008-.225-.008Zm.3.01c.166.004.334.004.501 0h-.502Zm.581-.002.234-.009-.234.01Zm.307-.012.202-.013-.202.013Zm.271-.018.22-.019-.22.02Zm.594-.06c.057-.007.113-.015.168-.024l-.168.023ZM50.26 4.85a2.107 2.107 0 0 0-.186-.09l.186.09Zm-.61-.221a2.372 2.372 0 0 0-.236-.037l.236.037Zm14.62 11.498-.042.006.042-.006ZM9.693 12.786a2.268 2.268 0 0 1-.6-.913c-.1-.292-.23-.656-.23-.965a3.334 3.334 0 0 1 1.685-2.91c.396-.218.543-.367.603-.444a.283.283 0 0 0-.092-.023c-1.184 0-1.791-.464-2.09-.856-.282-.367-.426-.84-.426-1.359 0-.251.035-.515.105-.784.334-.555.65-.402.845-.118.124.177.971.783 2.016.879.76.072 1.17.447 1.383.746a1.959 1.959 0 0 1 .293 1.521c-.115.468-.604.89-1.286 1.427l-.386.322c-.566.5-.878 1.054-.878 1.525a.966.966 0 0 0 .119.463c.253.43.968.701 2.005.336.479-.167 1.402-.752 1.965-1.315.663-.666 1.548-.825 2.4-.893.739-.056 1.193-.239 1.514-.602.946-1.074 1.857-1.225 2.71-1.288.326-.026.344-.05.387-.107.47-.63.952-.964 1.386-1.158.33-.148.632-.215.879-.27l.3-.074.074-.027c.475-.154.842-.281 1.808-.938l.041-.026.04-.026h.001l.041-.025.041-.024h.001l.041-.021h.001l.04-.022h.002l.04-.02.003-.001.04-.02h.002l.041-.017.002-.001.041-.017h.002l.041-.016.002-.001.041-.015.044-.014.002-.001.04-.013h.004l.04-.013h.004l.04-.012h.003l.041-.01.004-.001.04-.01h.004l.04-.009h.004l.041-.008.004-.001.04-.007h.004l.04-.006.005-.001.04-.005h.004l.04-.005h.005l.04-.004h.005l.04-.003h.004l.04-.003h.004l.04-.002.045-.002H27.579l.084.005.039.002h.005l.038.003h.006l.038.005h.006l.038.004h.006l.038.005.006.001.037.005h.007l.037.006.006.001.037.006.007.001.036.007.007.001.036.007.006.001c.058.011.115.024.17.038l.036.009.007.002c.056.014.111.03.166.046l.032.01.008.003c.109.034.214.073.315.114l.029.012.037.015C30.964 2.063 34.23.184 37.94.014V.013a12.352 12.352 0 0 1 1.091 0l.18.009c3.59.217 6.753 2.038 8.79 4.76.29-.1.608-.175.931-.197h.009l.03-.002.032-.002h.016l.032-.001h.008l.031-.001h.128l.031.002h.008l.032.001h.007l.032.003h.007l.032.003h.007l.033.004h.006c.079.009.158.02.235.037l.035.007.005.001.034.008.005.001.034.01h.005l.034.01h.004l.036.01.003.002.035.01.004.002.035.012h.003l.039.014.035.013h.003l.035.015h.003l.036.015.002.001c.063.027.125.057.186.09h.002l.036.02.037.022.037.022.036.023.036.024c.666.455 1.05.656 1.378.787.148.06.284.104.43.151l.076.027.303.074c.164.037.352.078.555.145.508.167 1.116.49 1.705 1.283.043.058.062.082.39.107.852.064 1.76.215 2.712 1.289.318.362.77.545 1.509.601.857.068 1.739.227 2.4.894.564.562 1.486 1.147 1.967 1.314 1.036.366 1.755.095 2.002-.336.054-.09.09-.19.108-.297a.975.975 0 0 0 .015-.166c0-.47-.312-1.026-.876-1.524l-.07-.06-.32-.263c-.68-.537-1.17-.959-1.287-1.427a1.992 1.992 0 0 1 .293-1.521c.214-.3.628-.674 1.384-.746 1.05-.096 1.893-.701 2.016-.88.198-.283.512-.436.844.12.07.269.106.532.106.784 0 .52-.144.991-.426 1.358-.3.393-.906.856-2.092.856a.276.276 0 0 0-.09.024c.06.076.206.226.603.443.87.48 1.679 1.516 1.686 2.91 0 .31-.128.673-.231.965a2.302 2.302 0 0 1-.597.913c-.49.459-1.307.818-2.667.737a7.319 7.319 0 0 1-.428-.04c-.035.692-.224 1.513-.489 1.927a.528.528 0 0 0-.096.26l.002.037c.008.002.603.356.603.356l.096.049s.056.027.063.033c.009-.003.206-.012.206-.012l.039-.006h.004c.372-.036.94-.22 1.182.46.063.18.102.337.138.476.074.284.137.495.384.687 0 0 .122-.105.26-.23.108-.095.213-.192.316-.293.172-.177.49-.087.72 0 .232.09.52.29.723.407a.767.767 0 0 1 .376.437c.062.175.204.29.42.406.21.12.51.503.51 1.02 0 .08.008.148.03.22.015.048.036.097.064.154.293.593.058.892-.111 1.018-.228.172-.63.243-1.007.18l.003.098-.55-.074c-.214-.027-.496.028-.664.063l-.04.011a1.138 1.138 0 0 1-1.224-.58c-.147-.26-.376-.502-.488-.568a1.926 1.926 0 0 1-.722.074 1.717 1.717 0 0 1-.939-.414 2.499 2.499 0 0 1-.165-.152 1.835 1.835 0 0 0-1.532-.53l-.24.044c-.497.09-1.118.205-1.69-.147a4.556 4.556 0 0 0-.55-.263c-.52-.229-1.059-.464-1.132-.96-.012-.088-.108-.25-.186-.378a3.168 3.168 0 0 1-.201-.372 1.084 1.084 0 0 1-.1-.404 1.746 1.746 0 0 1-.707.035l-.226-.035c-.38-.065-1.178-.197-1.431-.104-.506.184-2.097.273-2.533.172l-.312-.068a3.822 3.822 0 0 1-.477.419c.319.017.6-.022.793.028l.4.106c.128-.038.441-.034.619-.017l.469.035.535.052c.258.052.532.164.485.673a.943.943 0 0 1-.236.51 5.1 5.1 0 0 0-.413.616l-.02.04c-.11.235-.271.45-.742.45-.06-.002-.12 0-.178.006-.015.039-.053.11-.053.11-.106.242-.26.58-.552.775l-.078.057c-.235.169-.626.447-1.224.228l-.206-.074c-.522-.19-1.311-.474-1.71-.693l-.055-.031c-.371-.204-.453-.245-.588-.226l-.075.011c-.284.04-.82.113-1.191-.506l-.034-.054a11.897 11.897 0 0 1-7.45 4.737l-.014.003c-.104.02-.208.037-.313.053l-.04.006-.142.021a6.467 6.467 0 0 1-.169.023l-.102.013-.16.018-.112.012c-.073.006-.146.013-.22.018l-.069.005-.201.013-.074.004-.233.009-.08.001a9.65 9.65 0 0 1-.502 0l-.074-.001-.225-.009-.092-.005-.19-.012-.08-.005c-.074-.006-.149-.012-.224-.02l-.11-.01-.146-.017-.082-.01a7.399 7.399 0 0 1-.23-.031l-.093-.014-.164-.026-.084-.014c-.066-.012-.132-.023-.197-.036l-.142-.029-.073-.015c-.097-.02-.195-.042-.291-.066l-.026-.006-.151-.037-.078-.02c-.09-.023-.181-.049-.27-.074l-.033-.01a11.92 11.92 0 0 1-6.5-4.725l-.202.311c-.367.62-.903.547-1.19.507l-.076-.012c-.134-.02-.219.022-.586.226l-.06.031c-.396.22-1.182.504-1.707.693l-.206.074c-.599.219-.991-.06-1.221-.228l-.081-.056c-.293-.195-.444-.533-.552-.776 0 0-.035-.07-.052-.11a1.705 1.705 0 0 0-.18-.006c-.466 0-.632-.215-.739-.45l-.019-.04a4.83 4.83 0 0 0-.416-.616.93.93 0 0 1-.235-.51c-.049-.508.229-.62.485-.673l.535-.052.47-.035c.175-.016.488-.02.616.018l.401-.107c.191-.05.474-.01.79-.028a4.562 4.562 0 0 1-.475-.418l-.312.067c-.438.1-2.026.012-2.528-.171-.255-.094-1.052.038-1.434.104l-.23.035a1.74 1.74 0 0 1-.702-.035c-.012.29-.168.553-.302.775-.077.129-.176.29-.188.379-.068.496-.613.73-1.131.959a4.61 4.61 0 0 0-.548.264c-.57.352-1.192.236-1.69.146l-.242-.043a1.837 1.837 0 0 0-1.531.53c-.746.749-1.488.584-1.826.491-.112.067-.342.308-.488.568a1.14 1.14 0 0 1-1.226.58l-.04-.01c-.167-.036-.445-.09-.658-.064l-.554.074.006-.097c-.38.062-.783-.01-1.011-.18-.168-.126-.403-.425-.106-1.019a.775.775 0 0 0 .092-.373c0-.518.298-.901.506-1.02.22-.116.363-.232.422-.406a.76.76 0 0 1 .375-.437c.202-.117.49-.318.721-.407.23-.087.55-.178.723 0 .175.172.576.522.576.522.368-.286.333-.616.524-1.163.238-.68.808-.496 1.179-.46l.042.006s.2.008.206.011l.066-.032.093-.05.604-.356c.002-.007.002-.018.002-.036a.52.52 0 0 0-.095-.26c-.266-.414-.454-1.236-.488-1.927a6.968 6.968 0 0 1-.28.029c-1.448.117-2.309-.252-2.812-.727Z" fill="#4F5162"/><path d="M13.258 12.98s-.12 1.176.406 2.212c0 0 .39.556-.015.914l-.806.472s-.108.08-.468.053c0 0-.497-.124-.663.097 0 0-.144.425-.324.776 0 0-.367.849-.975 1.12 0 0-.484.113-.63.535 0 0-.157.297-.47.31 0 0-.233.074-.387.597 0 0-.084.339-.08.598 0 0 .398-.052.657.042 0 0 .637.216.922-.313 0 0 .55-.95.959-.806 0 0 .82.276 1.399-.327 0 0 .795-.875 1.918-.695 0 0 1.266.258 1.66-.036 0 0 .799-.42 1.098-.524 0 0 .367-.108.404-.512 0 0 .223-.569.385-.758l-.604-.007s-.546.926-1.475 1.205c0 0-.508.205-1.527.039 0 0-1.464-.334-2.75 1.064 0 0-.176.256-.426.153 0 0 .71-1.22 2.27-1.509 0 0 .51-.109.936-.04 0 0 2.101.063 3.075-2.02 0 0-.105-1.776.36-2.196 0 0 .18-.056.144.287 0 0-.32 1.86.28 2.221 0 0 .35.276.994.174 0 0 .977-.235 1.772-.098 0 0 1.222.292 2.272.157 0 0-.273-.42-.22-.923 0 0 .151-.36.323-.129 0 0 .404 1.344 1.509 1.747 0 0 .986.362.97 1.622 0 0-.151.172-1.459.64 0 0-.489.155-.646-.212 0 0-.63-1.36-1.18-1.317l-1.03.084s-.351.09-.093.374c0 0 .353.473.498.755 0 0 .042.24.373.19 0 0 .46-.23.72.632 0 0 .237.43.639.568 0 0 .375.127.728-.073 0 0 1.702-.629 1.998-.852 0 0 .368-.207.66-.108 0 0 .511.123.721-.283l.528-.822s.116-.202.1-.456c0 0 .047-.252-.164-.508 0 0-.199-.213-.23-.366l-.376-.89s-.153-.238-.32-.335l-.502.037s.345.889.598 1.25c0 0 .343.528.325.863 0 0-.022.235-.114.333 0 0-.116.187-.163.278 0 0-.152.332-.276.406 0 0-.213.127-.265.132 0 0-.093.026-.024-.141 0 0 .281-.597.263-.915 0 0 .055-.332-.179-.527 0 0-.547-.87-.625-1.129 0 0-.172-.348-.263-.407 0 0-.191-.253.117-.371 0 0 .769-.175.906-.27 0 0 .37-.113.61-.888 0 0 .33-.903.325-1.461 0 0 .648 1.258-.385 2.536 0 0 .817.243 1.156 0 0 0 1.018-.15 1.215-.204 0 0 .256-.063.11.12 0 0-.308.44-.334.729 0 0-.02.229-.206.363 0 0-.58.408-.63.8 0 0-.124.376.132.286 0 0 .347-.162.469 0 0 0 .036.018-.098.169 0 0-.348.304-.373.713 0 0 .064.472.187.623 0 0 .156.219.404.15 0 0 .065-.054.184-.018 0 0 .122 0 .442-.112 0 0 .484-.134.646-.191 0 0 .617-.223.921-.207 0 0 .198-.022.45.029 0 0 .772.088 1.286-.484 0 0 .392-.313.524-.01 0 0 .939 1.269 2.458.935 0 0-1.209-.5-1.522-1.183 0 0-.042-.578-.675-1.382 0 0-.194-.267-.007-.336 0 0 .108-.082.344.157 0 0 .601.58.819 1.113 0 0 .746 1.136 1.823.754 0 0-.845-.328-1.242-.94 0 0-.246-.83-1.07-1.446 0 0-.033-.931-.418-1.454 0 0-.196-.875-.25-1.08 0 0-.207-.768-.205-.98 0 0 .068-1.003-.574-1.784 0 0-.43-.836-1.1-1.418 0 0-.51-.634-.89-1.022 0 0-.498-.588-1.584-1.356 0 0-.492-.36-.853-.748 0 0-1.917-1.389-3.302-.275 0 0-.956.656-1.755.858 0 0-1.641.193-2.341 1.34 0 0-.06.212-.721.293 0 0-1.454-.177-2.524 1.262 0 0-.497.489-1.481.608 0 0-1.605-.166-2.65 1.073 0 0-2.636 2.316-4.209.815 0 0-.814-.777.117-2.183 0 0 .59-.718 1.598-1.468 0 0 .818-.58.443-1.482 0 0-.198-.871-1.423-.894 0 0-1.537-.3-2.159-1.08 0 0-.694 2.461 2.03 2.42 0 0 .71.106.462.673 0 0-.348.486-.815.663 0 0-.822.362-1.193 1.567 0 0-.83 2.11 1.195 2.924.78.27 1.68.191 2.482.05ZM9.36 17.95a.493.493 0 0 1 .413-.11c.323.07.128.35.128.35-.13.247-.557.662-.557.662-.379.285-.679-.055-.679-.055-.28-.279.085-.413.085-.413.212-.087.61-.433.61-.433Zm-.813 1.32s.118.087.055.26c0 0-.3.829-.286 1.107 0 0-.666.12-.758-.211 0 0-.018-.128.09-.313 0 0 .113-.172.143-.488 0 0-.01-.795.501-.585.102.057.182.14.255.23Zm23.458-1.683c-.117-.003-.147-.046-.133-.176.08-.361.367-.517.367-.517.539-.324.605 0 .605 0 .099.58-.357.653-.357.653-.09.032-.482.04-.482.04Zm1.627-2.589c.01-.272.033-.876-.241-1.092-.102-.081-.502-.523-.502-.523-.061-.107-.108-.114-.108-.114-.083-.008-.19.185-.19.185-.285.555-.57.487-.57.487-.002-.1.066-.214.066-.214.137-.27.274-.54.409-.81.041-.096.08-.224.08-.224.275-.43.535-.103.535-.103.116.228.733.97.733.97.137.164.15.34.15.34.143 1.016-.361 1.098-.361 1.098Zm-5.687-6.133c-.085-.153-.05-.309.035-.457.191-.295.37.026.37.026.66.927.172 2.313.172 2.313-.068-1.276-.577-1.882-.577-1.882Zm35.426 4.114s.12 1.177-.406 2.213c0 0-.39.556.015.914l.807.472s.108.08.468.053c0 0 .496-.124.662.097 0 0 .144.425.325.776 0 0 .367.849.975 1.12 0 0 .484.113.63.535 0 0 .157.297.469.31 0 0 .233.074.388.597 0 0 .084.339.08.598 0 0-.398-.052-.658.042 0 0-.636.216-.921-.313 0 0-.55-.95-.959-.806 0 0-.82.276-1.399-.327 0 0-.795-.875-1.919-.695 0 0-1.265.258-1.66-.036 0 0-.798-.42-1.097-.524 0 0-.367-.108-.404-.512 0 0-.223-.569-.385-.758l.603-.007s.547.926 1.476 1.205c0 0 .508.205 1.527.039 0 0 1.464-.334 2.75 1.064 0 0 .176.256.426.153 0 0-.71-1.22-2.27-1.509 0 0-.51-.109-.937-.04 0 0-2.1.063-3.075-2.02 0 0 .106-1.776-.36-2.196 0 0-.179-.056-.143.287 0 0 .319 1.86-.28 2.221 0 0-.35.276-.994.174 0 0-.978-.235-1.772-.098 0 0-1.222.292-2.272.157 0 0 .272-.42.219-.923 0 0-.15-.36-.323-.129 0 0-.404 1.344-1.508 1.747 0 0-.986.362-.97 1.622 0 0 .151.172 1.459.64 0 0 .488.155.646-.212 0 0 .63-1.36 1.179-1.317l1.03.084s.352.09.093.374c0 0-.352.473-.497.755 0 0-.042.24-.373.19 0 0-.46-.23-.72.632 0 0-.237.43-.639.568 0 0-.376.127-.728-.073 0 0-1.702-.629-1.998-.852 0 0-.369-.207-.66-.108 0 0-.51.123-.72-.283l-.528-.822s-.117-.202-.1-.456c0 0-.048-.252.163-.508 0 0 .2-.213.23-.366l.377-.89s.152-.238.32-.335l.502.037s-.346.889-.6 1.25c0 0-.342.528-.324.863 0 0 .023.235.114.333 0 0 .116.187.163.278 0 0 .152.332.276.406 0 0 .213.127.265.132 0 0 .093.026.023-.141 0 0-.28-.597-.262-.915 0 0-.054-.332.178-.527 0 0 .548-.87.627-1.129 0 0 .17-.348.262-.407 0 0 .191-.253-.117-.371 0 0-.768-.175-.906-.27 0 0-.37-.113-.61-.888 0 0-.33-.903-.325-1.461 0 0-.648 1.258.385 2.536 0 0-.817.243-1.155 0 0 0-1.018-.15-1.216-.204 0 0-.255-.063-.11.12 0 0 .308.44.334.729 0 0 .02.229.206.363 0 0 .58.408.63.8 0 0 .124.376-.132.286 0 0-.346-.162-.469 0 0 0-.036.018.098.169 0 0 .348.304.373.713 0 0-.064.472-.187.623 0 0-.156.219-.404.15 0 0-.065-.054-.184-.018 0 0-.123 0-.442-.112 0 0-.485-.134-.647-.191 0 0-.617-.223-.921-.207 0 0-.198-.022-.45.029 0 0-.772.088-1.286-.484 0 0-.391-.313-.524-.01 0 0-.938 1.269-2.458.935 0 0 1.21-.5 1.523-1.183 0 0 .041-.578.674-1.382 0 0 .194-.267.007-.336 0 0-.108-.082-.344.157 0 0-.6.58-.818 1.113 0 0-.748 1.136-1.824.754 0 0 .845-.328 1.242-.94 0 0 .246-.83 1.072-1.446 0 0 .032-.931.417-1.454 0 0 .196-.875.248-1.08 0 0 .208-.768.207-.98 0 0-.07-1.003.573-1.784 0 0 .43-.836 1.102-1.418 0 0 .509-.634.888-1.022 0 0 .498-.588 1.585-1.356 0 0 .492-.36.852-.748 0 0 1.917-1.389 3.302-.275 0 0 .956.656 1.755.858 0 0 1.642.193 2.341 1.34 0 0 .06.212.721.293 0 0 1.454-.177 2.524 1.262 0 0 .497.489 1.481.608 0 0 1.605-.166 2.65 1.073 0 0 2.636 2.316 4.209.815 0 0 .814-.777-.117-2.183 0 0-.59-.718-1.598-1.468 0 0-.818-.58-.443-1.482 0 0 .198-.871 1.423-.894 0 0 1.537-.3 2.159-1.08 0 0 .694 2.461-2.03 2.42 0 0-.71.106-.463.673 0 0 .348.486.816.663 0 0 .821.362 1.193 1.567 0 0 .83 2.11-1.196 2.924-.778.27-1.678.191-2.48.05Zm3.9 4.972a.493.493 0 0 0-.414-.111c-.323.07-.128.35-.128.35.13.247.557.662.557.662.38.285.679-.055.679-.055.28-.279-.085-.413-.085-.413-.212-.087-.61-.433-.61-.433Zm.811 1.318s-.117.088-.055.26c0 0 .301.83.287 1.108 0 0 .666.12.758-.211 0 0 .017-.128-.09-.313 0 0-.114-.172-.143-.488 0 0 .01-.795-.501-.585a.938.938 0 0 0-.256.23Zm-23.458-1.682c.117-.003.148-.046.133-.176-.079-.361-.366-.517-.366-.517-.54-.324-.605 0-.605 0-.098.58.356.653.356.653.091.032.482.04.482.04Zm-1.627-2.589c-.01-.272-.033-.876.242-1.092.102-.081.502-.523.502-.523.061-.107.108-.114.108-.114.082-.008.19.185.19.185.284.555.57.487.57.487.002-.1-.066-.214-.066-.214-.138-.27-.274-.54-.41-.81a2.546 2.546 0 0 1-.08-.224c-.274-.43-.534-.103-.534-.103-.116.228-.733.97-.733.97a.663.663 0 0 0-.15.34c-.143 1.016.361 1.098.361 1.098Zm5.688-6.133c.084-.153.05-.309-.035-.457-.191-.295-.37.026-.37.026-.66.927-.172 2.313-.172 2.313.067-1.276.577-1.882.577-1.882ZM0 28.06v16.99h3.405V31.302h1.604s2.504-.114 2.504 2.182c0 2.295-2.223 2.238-2.223 2.238h-.816v3.911l3.405 5.418h3.995L7.12 38.103s3.911-.34 3.911-4.619c0-4.278-2.954-5.424-6.893-5.424H0Zm49.78 7.947s1.49-1.168 1.49-3.381c0-2.215-1.597-4.211-4.998-4.211h-5.694V45.05h7.014s5.028-.057 5.028-4.632c0-2.656-1.024-3.673-2.84-4.411Zm-2.745 6.148h-3.052v-10.84h1.631s2.218-.167 2.218 1.781-1.764 1.776-1.764 1.776h-1.016v2.92h1.983c.52 0 2.176.254 2.176 2.173s-2.176 2.19-2.176 2.19Zm24.215-14.43h3.18V45.05h-3.18V27.725Zm-5.473 0h3.222V45.05h-3.222V27.725Zm-12.199 7.176h3.264v5.809s.114 1.956 1.942 1.956c1.828 0 1.801-1.956 1.801-1.956v-5.781h3.292v5.98s.422 4.675-5.009 4.675c-5.43 0-5.29-4.109-5.29-4.845V34.9ZM31.94 27.725v7.857s-1.576-1.219-3.378-1.219c-1.8 0-4.84 1.275-4.84 5.299 0 4.023 2.59 5.554 4.813 5.554s3.461-1.474 3.461-1.474v1.309h3.207V27.725H31.94Zm-2.477 14.656c-.169 0-2.28.029-2.28-2.578 0-2.607 2.308-2.692 2.308-2.692s2.59.085 2.59 2.635-2.449 2.635-2.618 2.635Zm-12.156-8.018c5.459 0 5.234 5.356 5.234 5.356v.85h-7.4c0 1.217 1.012 2.266 2.391 2.266s2.082-1.332 2.082-1.332l2.617 1.303c-1.21 1.843-2.842 2.579-4.67 2.579-5.685 0-5.798-4.76-5.798-5.355 0-.595.085-5.667 5.544-5.667Zm-2.11 4.25h4.052s-.169-1.926-1.998-1.926c-1.83 0-2.055 1.926-2.055 1.926Z" fill="#4F5162"/></svg>